<?xml version="1.0" encoding="UTF-8" standalone="no"?>
<svg
   version="1.1"
   width="256"
   height="256"
   viewBox="0 0 256 256"
   xml:space="preserve"
   id="svg28"
   sodipodi:docname="blockchain-logo.svg"
   inkscape:version="1.1.2 (b8e25be833, 2022-02-05)"
   xmlns:inkscape="http://www.inkscape.org/namespaces/inkscape"
   xmlns:sodipodi="http://sodipodi.sourceforge.net/DTD/sodipodi-0.dtd"
   xmlns="http://www.w3.org/2000/svg"
   xmlns:svg="http://www.w3.org/2000/svg"><sodipodi:namedview
   id="namedview30"
   pagecolor="#ffffff"
   bordercolor="#666666"
   borderopacity="1.0"
   inkscape:pageshadow="2"
   inkscape:pageopacity="0.0"
   inkscape:pagecheckerboard="0"
   showgrid="false"
   inkscape:zoom="1"
   inkscape:cx="48.5"
   inkscape:cy="226"
   inkscape:window-width="1920"
   inkscape:window-height="1017"
   inkscape:window-x="1912"
   inkscape:window-y="-8"
   inkscape:window-maximized="1"
   inkscape:current-layer="g24" />
<desc
   id="desc2">Created with Fabric.js 1.7.22</desc>
<defs
   id="defs4">
</defs>
<g
   transform="translate(128 128) scale(0.72 0.72)"
   id="g26"
   style="">
	<g
   style="stroke: none; stroke-width: 0; stroke-dasharray: none; stroke-linecap: butt; stroke-linejoin: miter; stroke-miterlimit: 10; fill: none; fill-rule: nonzero; opacity: 1;"
   transform="translate(-175.05 -175.05000000000004) scale(3.89 3.89)"
   id="g24">
	
	<path
   id="path8"
   style="opacity:1;fill:#000000;fill-rule:nonzero;stroke:none;stroke-width:2.8008;stroke-linecap:butt;stroke-linejoin:miter;stroke-miterlimit:10;stroke-dasharray:none"
   d="M 128 1.9648438 C 118.76576 1.9648438 111.28125 9.447401 111.28125 18.681641 C 111.28125 26.462263 116.60357 32.979523 123.79883 34.847656 L 123.79883 50.351562 C 109.04755 51.953106 93.137003 58.078478 82.470703 65.759766 L 95.095703 78.384766 C 104.79061 71.932716 116.16878 68.466797 128.07812 68.466797 C 139.96972 68.466797 151.32767 71.923688 161.01172 78.355469 L 173.64062 65.728516 C 159.27049 56.165718 146.95347 52.018431 132.20117 50.351562 L 132.20117 34.847656 C 139.39923 32.982323 144.7207 26.462263 144.7207 18.681641 C 144.7179 9.4502018 137.23424 1.9648434 128 1.9648438 z M 128 10.367188 C 130.22103 10.367188 132.30961 11.231486 133.88086 12.802734 C 135.45211 14.373983 136.31836 16.460606 136.31836 18.681641 C 136.31836 23.26655 132.58686 26.998047 128.00195 26.998047 C 123.41424 26.998047 119.68359 23.26655 119.68359 18.681641 C 119.68359 14.096731 123.41509 10.367184 128 10.367188 z M 190.6875 82.851562 C 186.2565 86.912804 182.42243 91.116631 178.05078 95.488281 C 184.37484 105.11671 187.77734 116.37826 187.77734 128.16602 C 187.77734 140.07701 184.30947 151.4521 177.85742 161.14648 L 190.48242 173.77148 C 199.35206 162.12042 204.84916 144.78296 205.65234 132.20117 L 221.1543 132.20117 C 223.01963 139.39643 229.54054 144.71875 237.31836 144.71875 C 246.5526 144.71875 254.03516 137.23424 254.03516 128 C 254.03516 118.76576 246.5526 111.28125 237.31836 111.28125 C 229.53774 111.28125 223.02048 116.60357 221.15234 123.79883 L 205.64844 123.79883 C 203.45032 106.34823 199.47665 95.043705 190.6875 82.851562 z M 65.4375 82.896484 C 56.413523 93.944511 51.136414 111.50624 50.351562 123.80078 L 34.847656 123.80078 C 32.982323 116.60553 26.463368 111.28516 18.685547 111.28516 C 9.4485079 111.28236 1.9648438 118.76576 1.9648438 128 C 1.9648438 137.23424 9.4474015 144.71875 18.681641 144.71875 C 26.462263 144.71875 32.98037 139.39643 34.845703 132.20117 L 50.347656 132.20117 C 52.584677 149.86775 56.634355 161.3408 65.642578 173.72656 C 70.445198 179.86129 77.33938 186.28605 82.763672 190.77539 C 94.200289 199.5022 111.45395 204.86053 123.79883 205.64844 L 123.79883 221.15234 C 116.60357 223.01768 111.28125 229.53663 111.28125 237.31445 C 111.28125 246.55149 118.76576 254.03516 128 254.03516 C 137.23424 254.03516 144.71875 246.5526 144.71875 237.31836 C 144.71875 229.53774 139.39727 223.01768 132.19922 221.15234 L 132.19922 205.64844 C 149.26505 203.36684 161.22724 199.5353 173.34766 190.80664 C 169.22448 186.41934 165.05657 182.51751 160.70703 178.16797 C 151.0891 184.47194 139.84648 187.86523 128.07812 187.86523 C 116.82091 187.86523 106.04427 184.76197 96.710938 178.97461 C 90.698043 175.5749 82.980291 168.02984 77.175781 159.39062 C 71.445317 150.09018 68.378906 139.36612 68.378906 128.16602 C 68.378906 116.39678 71.771245 105.15359 78.076172 95.535156 C 73.882045 91.043427 69.617201 87.076187 65.4375 82.896484 z M 18.681641 119.68359 C 23.26655 119.68359 26.998047 123.41509 26.998047 128 C 26.998047 132.58491 23.26655 136.31641 18.681641 136.31641 C 14.096731 136.31641 10.367185 132.58491 10.367188 128 C 10.367188 123.41509 14.096731 119.68359 18.681641 119.68359 z M 237.31836 119.68359 C 241.90327 119.68359 245.63281 123.41509 245.63281 128 C 245.63281 132.58491 241.90327 136.31641 237.31836 136.31641 C 232.73345 136.31641 229.00195 132.58491 229.00195 128 C 229.00195 123.41509 232.73345 119.68359 237.31836 119.68359 z M 128 229.00195 C 132.58491 229.00195 136.31641 232.73345 136.31641 237.31836 C 136.31641 239.53939 135.45016 241.62882 133.87891 243.19727 C 132.31046 244.76851 130.22103 245.63281 128 245.63281 C 123.41509 245.63281 119.68359 241.90327 119.68359 237.31836 C 119.68359 232.73345 123.41509 229.00195 128 229.00195 z "
   transform="matrix(0.35704085,0,0,0.35704085,-0.70122822,-0.70122822)" />
	
	
	
	
	<path
   d="m 69.391102,14.995939 c -3.297,0 -5.969,2.672 -5.969,5.969 0,1.104 0.305,2.134 0.827,3.021 l -5.72702,5.72802 c -0.586,0.585 -0.586,1.536 0,2.121 0.293,0.293 0.677,0.439 1.061,0.439 0.384,0 0.768,-0.146 1.061,-0.439 l 5.72702,-5.72702 c 0.887,0.522 1.917,0.827 3.021,0.827 3.297,0 5.969,-2.672 5.969,-5.969 0,-3.297 -2.673,-5.97 -5.97,-5.97 z m 0,8.939 c -1.637,0 -2.969,-1.332 -2.969,-2.969 0,-1.637 1.332,-2.969 2.969,-2.969 1.637,0 2.969,1.332 2.969,2.969 0.001,1.637 -1.331,2.969 -2.969,2.969 z"
   style="opacity:1;fill:#000000;fill-rule:nonzero;stroke:none;stroke-width:1;stroke-linecap:butt;stroke-linejoin:miter;stroke-miterlimit:10;stroke-dasharray:none"
   stroke-linecap="round"
   id="path18"
   sodipodi:nodetypes="sscccsscsssssscs" />
	<path
   d="m 69.391101,63.604265 c -1.104,0 -2.134,0.305 -3.021,0.827 L 61.46,59.521164 c -0.586,-0.586 -1.535,-0.586 -2.121,0 -0.586,0.586 -0.586,1.535 0,2.121 l 4.910101,4.910101 c -0.522,0.887 -0.827,1.917 -0.827,3.021 0,3.297 2.672,5.969 5.969,5.969 3.297,0 5.969,-2.672 5.969,-5.969 0.001,-3.297 -2.672,-5.969 -5.969,-5.969 z m 0,8.938 c -1.637,0 -2.969,-1.332 -2.969,-2.969 0,-1.637 1.332,-2.969 2.969,-2.969 1.637,0 2.969,1.332 2.969,2.969 0.001,1.637 -1.331,2.969 -2.969,2.969 z"
   style="opacity:1;fill:#000000;fill-rule:nonzero;stroke:none;stroke-width:1;stroke-linecap:butt;stroke-linejoin:miter;stroke-miterlimit:10;stroke-dasharray:none"
   stroke-linecap="round"
   id="path20"
   sodipodi:nodetypes="scssscsscsssscs" />
	<path
   d="m 32.009837,29.356919 -5.72702,-5.72802 c 0.522,-0.887 0.827,-1.917 0.827,-3.021 0,-3.296999 -2.672,-5.968999 -5.969,-5.968999 -3.296999,0 -5.968999,2.672 -5.968999,5.968999 0,3.297 2.672,5.969 5.968999,5.969 1.104,0 2.134,-0.305 3.021,-0.827 l 5.72802,5.72802 c 0.293,0.293 0.677,0.439 1.061,0.439 0.384,0 0.768,-0.146 1.061,-0.439 0.584,-0.585 0.584,-1.536 -0.002,-2.121 z m -13.838019,-8.74802 c 0,-1.637 1.331999,-2.968999 2.968999,-2.968999 1.637,0 2.969,1.331999 2.969,2.968999 0,1.637 -1.332,2.969 -2.969,2.969 -1.637,0 -2.968999,-1.332 -2.968999,-2.969 z"
   style="opacity:1;fill:#000000;fill-rule:nonzero;stroke:none;stroke-width:1;stroke-linecap:butt;stroke-linejoin:miter;stroke-miterlimit:10;stroke-dasharray:none"
   stroke-linecap="round"
   id="path22"
   sodipodi:nodetypes="ccsssscssccsssss" />
</g>
</g>
<g
   transform="matrix(0.56513278,0,0,0.56513278,106.28308,149.65211)"
   id="g254">
	<g
   style="opacity:1;fill:none;fill-rule:nonzero;stroke:none;stroke-width:0;stroke-linecap:butt;stroke-linejoin:miter;stroke-miterlimit:10;stroke-dasharray:none"
   transform="matrix(3.89,0,0,3.89,-175.05,-175.05)"
   id="g252">
	
	<path
   d="m 4,90 c -1.024,0 -2.047,-0.391 -2.829,-1.172 -1.562,-1.562 -1.562,-4.095 0,-5.656 L 29.86,54.482 c 1.563,-1.563 4.095,-1.563 5.657,0 1.562,1.562 1.562,4.095 0,5.656 L 6.829,88.828 C 6.047,89.609 5.024,90 4,90 Z"
   style="opacity:1;fill:#000000;fill-rule:nonzero;stroke:none;stroke-width:1;stroke-linecap:butt;stroke-linejoin:miter;stroke-miterlimit:10;stroke-dasharray:none"
   stroke-linecap="round"
   id="path244" />
	<path
   d="m 47.793,44.194 c 0,-0.977 -0.792,-1.769 -1.769,-1.769 h -5.648 c -0.977,0 -1.769,0.792 -1.769,1.769 v 7.554 c 2.699,2.34 5.82,4.047 9.186,5.04 z"
   style="opacity:1;fill:#000000;fill-rule:nonzero;stroke:none;stroke-width:1;stroke-linecap:butt;stroke-linejoin:miter;stroke-miterlimit:10;stroke-dasharray:none"
   stroke-linecap="round"
   id="path246" />
	<path
   d="M 59.7,57.339 V 36.867 c 0,-0.977 -0.792,-1.769 -1.769,-1.769 h -5.648 c -0.977,0 -1.769,0.792 -1.769,1.769 v 20.555 c 1.423,0.25 2.877,0.385 4.352,0.385 1.642,-0.001 3.259,-0.16 4.834,-0.468 z"
   style="opacity:1;fill:#000000;fill-rule:nonzero;stroke:none;stroke-width:1;stroke-linecap:butt;stroke-linejoin:miter;stroke-miterlimit:10;stroke-dasharray:none"
   stroke-linecap="round"
   id="path248" />
	<path
   d="M 69.838,25.023 H 64.19 c -0.977,0 -1.769,0.792 -1.769,1.769 v 29.846 c 3.381,-1.073 6.508,-2.867 9.186,-5.31 V 26.792 c 0,-0.977 -0.792,-1.769 -1.769,-1.769 z"
   style="opacity:1;fill:#000000;fill-rule:nonzero;stroke:none;stroke-width:1;stroke-linecap:butt;stroke-linejoin:miter;stroke-miterlimit:10;stroke-dasharray:none"
   stroke-linecap="round"
   id="path250" />
</g>
</g></svg>
