<?xml version="1.0" encoding="UTF-8"?>
<svg width="200" height="300" version="1.1" viewBox="0 0 200 300" xml:space="preserve" xmlns="http://www.w3.org/2000/svg" xmlns:cc="http://creativecommons.org/ns#" xmlns:dc="http://purl.org/dc/elements/1.1/" xmlns:rdf="http://www.w3.org/1999/02/22-rdf-syntax-ns#" xmlns:xlink="http://www.w3.org/1999/xlink">
	<metadata><rdf:RDF><cc:Work rdf:about=""><dc:format>image/svg+xml</dc:format><dc:type rdf:resource="http://purl.org/dc/dcmitype/StillImage"/></cc:Work></rdf:RDF></metadata>
	<g id="ripple">
		<path d="m112.51 61.152c0 7.7598-6.2904 14.05-14.05 14.05-7.7596 0-14.05-6.2902-14.05-14.05 0-7.7595 6.2904-14.05 14.05-14.05 7.7596 0 14.05 6.2907 14.05 14.05" fill="#dc6b1b"/><path d="m111.88 60.144c0 7.7598-6.2904 14.05-14.05 14.05-7.7596 0-14.05-6.2902-14.05-14.05 0-7.7595 6.2904-14.05 14.05-14.05 7.7596 0 14.05 6.2907 14.05 14.05" fill="#f6e052"/><path d="m110.04 60.144c0 6.7467-5.4692 12.216-12.216 12.216-6.7467 0-12.216-5.4692-12.216-12.216s5.4692-12.216 12.216-12.216c6.7467 0 12.216 5.4692 12.216 12.216" fill="#f6a612"/><path d="m86.464 64.64s-1.215-4.0683 0.49213-8.3835c1.8232-4.609 6.8192-9.4301 14.962-7.6216 0 0-7.2751-3.1543-13.195 3.3708-5.1523 5.6788-2.2586 12.634-2.2586 12.634" fill="#dc6b1b"/><path d="m100.59 61.71c-0.15697 0-0.31092 0.01318-0.46099 0.03713l-0.22338-0.22801c-0.48782-0.49797-0.54162-1.2767-0.12699-1.8373l0.12296-0.16612c0.22051 0.05431 0.45104 0.08346 0.68841 0.08346 1.5792 0 2.8594-1.2803 2.8594-2.8596 0-1.579-1.2802-2.8593-2.8594-2.8593-1.5792 0-2.8594 1.2803-2.8594 2.8593 0 0.716 0.26307 1.3705 0.69783 1.8721l-0.14979 0.39575c-0.20893 0.55227-0.7376 0.91726-1.3278 0.91726h-0.42756c-0.3227-1.2255-1.4383-2.1293-2.7653-2.1293-1.5792 0-2.8594 1.2803-2.8594 2.8593 0 1.5793 1.2802 2.8596 2.8594 2.8596 1.2539 0 2.3192-0.80705 2.705-1.9304h0.35799c0.63645 0 1.1952 0.42369 1.367 1.0367l0.07903 0.28154c-0.33751 0.4696-0.53642 1.0454-0.53642 1.6676 0 1.5793 1.2802 2.8596 2.8594 2.8596 1.5792 0 2.8594-1.2803 2.8594-2.8596 0-1.5793-1.2802-2.8596-2.8594-2.8596" fill="#dc6b1b"/><path d="m100.09 61.198c-0.15697 0-0.31092 0.01278-0.46103 0.03713l-0.22335-0.228c-0.48779-0.49797-0.54165-1.2767-0.12703-1.8373l0.123-0.16612c0.22051 0.05431 0.45104 0.08346 0.68841 0.08346 1.5793 0 2.8594-1.2803 2.8594-2.8596 0-1.579-1.2802-2.8593-2.8594-2.8593-1.5792 0-2.8594 1.2802-2.8594 2.8593 0 0.71599 0.26307 1.3705 0.69783 1.8721l-0.14983 0.39573c-0.20888 0.55188-0.73752 0.91727-1.3278 0.91727h-0.42752c-0.3227-1.2255-1.4383-2.1293-2.7653-2.1293-1.5792 0-2.8594 1.2798-2.8594 2.8593 0 1.5793 1.2802 2.8596 2.8594 2.8596 1.2539 0 2.3192-0.80705 2.705-1.9304h0.35799c0.63645 0 1.1952 0.42369 1.367 1.0367l0.07899 0.28154c-0.33751 0.46961-0.53638 1.0455-0.53638 1.6676 0 1.5793 1.2802 2.8596 2.8594 2.8596 1.5793 0 2.8594-1.2803 2.8594-2.8596 0-1.5793-1.2802-2.8596-2.8594-2.8596" fill="#f8f89d"/><path d="m85.993 54.655c0.15378 0 0.29534-0.08346 0.36954-0.21805 0.38907-0.70642 1.7758-2.9366 3.5705-4.2868 1.5304-1.1517 3.2672-1.8397 4.0707-2.0992 0.23017-0.07427 0.35046-0.32666 0.26372-0.55267l-0.06238-0.16212c-0.07911-0.20606-0.30342-0.31627-0.51481-0.25318-0.8925 0.26715-3.1239 1.097-4.5833 2.3952-1.5993 1.4228-2.3199 2.18-3.4926 4.5687-0.13769 0.28033 0.06617 0.60818 0.37869 0.60818" fill="#fcfcd7"/>
	</g>
	<g id="litecoin">
		<path d="m141.63 96.128c0 7.0108-5.6834 12.694-12.694 12.694-7.0109 0-12.694-5.6833-12.694-12.694 0-7.0111 5.6834-12.694 12.694-12.694 7.0109 0 12.694 5.6833 12.694 12.694" fill="#dc6b1b"/><path d="m141.05 95.119c0 7.0108-5.6834 12.694-12.694 12.694-7.0109 0-12.694-5.6833-12.694-12.694 0-7.0111 5.6834-12.694 12.694-12.694 7.0109 0 12.694 5.6833 12.694 12.694" fill="#f6e052"/><path d="m139.4 95.077c0 6.0957-4.9415 11.037-11.037 11.037-6.0957 0-11.037-4.9415-11.037-11.037 0-6.0957 4.9415-11.037 11.037-11.037s11.037 4.9415 11.037 11.037" fill="#f6a612"/><path d="m118.09 99.154s-1.0978-3.6758 0.44464-7.5747c1.6473-4.1643 6.1613-8.5203 13.518-6.8858 0 0-6.5732-2.8503-11.922 3.0451-4.6552 5.1309-2.0407 11.415-2.0407 11.415" fill="#dc6b1b"/><path d="m127.74 98.649 0.43679-2.9828 1.8511-0.91032v-1.1842l-0.50764-0.62166-1.1566 1.44 0.80444-5.4932-0.48153-0.61299-2.653 0.61299-1.0476 7.154-2.0278 1.3314 0.48153 0.613 1.3594-0.66856-1.0073 2.7904 0.50764 0.62131h9.068l0.61422-2.0894-0.48153-0.61299-5.7602 0.61299" fill="#dc6b1b"/><path d="m127.26 98.033 0.43679-2.9828 1.8512-0.90995v-1.1842l-1.6643 0.81794 0.80448-5.4932h-3.1345l-1.0476 7.154-1.5463 0.7602v1.1842l1.3594-0.66856-0.49964 3.412h9.068l0.61419-2.0897h-6.2417" fill="#f8f89d"/><path d="m117.74 90.09c0.13895 0 0.26684-0.07541 0.33389-0.19699 0.3515-0.63826 1.6044-2.6533 3.226-3.8736 1.3827-1.0402 2.952-1.6619 3.6779-1.8964 0.20796-0.0671 0.31664-0.29549 0.23828-0.49935l-0.0564-0.14684c-0.0715-0.18616-0.27414-0.28576-0.46514-0.22839-0.80639 0.24139-2.8225 0.99112-4.1411 2.1641-1.445 1.2852-2.096 1.9697-3.1557 4.1279-0.1244 0.25328 0.0598 0.5495 0.34216 0.5495" fill="#fcfcd7"/>
	</g>
	<g id="bitcoin">
		<path d="m105.79 127.76c0 11.243-9.1143 20.357-20.358 20.357-11.243 0-20.358-9.1143-20.358-20.357 0-11.244 9.115-20.358 20.358-20.358 11.244 0 20.358 9.1143 20.358 20.358" fill="#dc6b1b" stroke-width=".022466"/>
		<path d="m104.7 126.75c0 11.243-9.1143 20.357-20.358 20.357-11.243 0-20.358-9.1143-20.358-20.357 0-11.244 9.115-20.358 20.358-20.358 11.244 0 20.358 9.1143 20.358 20.358" fill="#f6e052" stroke-width=".022466"/>
		<path d="m102.11 127.25c0 9.7757-7.9247 17.7-17.7 17.7-9.7752 0-17.7-7.9247-17.7-17.7s7.9247-17.7 17.7-17.7c9.7757 0 17.7 7.9247 17.7 17.7" fill="#f6a612" stroke-width=".022466"/>
		<g transform="matrix(.022466 0 0 -.022466 -76.557 527.95)" fill="#dc6b1b"><path d="m6432.2 17546s-78.372 262.39 31.73 540.73c117.6 297.24 439.82 608.18 964.99 491.54 0 0-469.23 203.46-851.05-217.4-332.29-366.26-145.67-814.86-145.67-814.86"/><path d="m7437.7 17899s81.411 8.473 81.643 127.08c0.2058 118.6-65.959 147.45-152.57 169.93-15.427 4.018-40.976 7.237-72.578 9.838l-1.0817-117.88c38.143-16.921 60.911-45.74 53.185-91.146-4.8937-28.666-26.683-46.797-54.55-58.181l-1.1069-121.05c62.018-14.243 104.13-46 93.542-108.09-7.2117-42.342-48.239-63.744-95.191-74.15l-1.1078-121.12 9.0401-0.103s265.61-9.015 280.01 178.84c14.423 187.86-139.23 206.04-139.23 206.04"/><path d="m7131 17629 5.6144 196.49c21.608 1.339 43.526 1.931 64.954 1.519l1.416 93.928c-38.375-2.292-69.384 0.696-69.384 0.696l2.9874 185.13c23.36 1.443 46.797 1.52 69.178-0.05l1.5713 104c-23.849 1.031-48.755 1.855-73.84 2.524l1.3907 150.36-36.521 34.28-51.69-182.86c-101.63 1.494-227.49-63.846-227.49-63.846l36.521-34.28 70.028-0.928c28.536-0.386 51.252-24.003 50.557-52.54l-9.4524-377.44c-0.6694-26.913-22.046-48.728-48.934-49.913l-102.4-82.21 36.52-34.28 184.17-2.37-38.813-118.24 36.521-34.28 91.791-4.43 1.4428 155.77 69.744-0.902 1.6746 110.9c-38.478-0.335-67.556 2.987-67.556 2.987"/></g>
		<path d="m85.078 137.96 2.0622 0.0995 0.03298-3.5764-2.0431-0.026-0.87256 2.7328 0.82048 0.77014" fill="#f68815" stroke-width=".022466"/>
		<g transform="matrix(.022466 0 0 -.022466 -76.557 527.95)" fill="#dc6b1b"><path d="m7295.6 18358-36.495 34.279-51.69-181.68c31.524-1.34 61.168-3.04 86.794-5.126l1.3908 152.52"/><path d="m7293.1 18088 1.0817 117.88c-25.626 2.086-55.27 3.786-86.794 5.126l-1.5713-104c32.761-2.318 63.1-8.268 87.284-19.008"/><path d="m7201.6 17827c31.652-0.618 62.198-3.502 89.009-9.683l1.1069 121.05c-27.094-11.075-59.957-15.737-88.7-17.437l-1.416-93.928"/><path d="m7198.6 17626-1.6746-110.9 90.941-1.159 1.1078 121.12c-30.134-6.67-62.688-8.808-90.374-9.065"/></g>
		<g transform="matrix(.022466 0 0 -.022466 -76.557 527.95)" fill="#f8f89d"><path d="m7401.2 17933s81.412 8.473 81.618 127.08-65.959 147.45-152.57 169.93c-15.427 4.018-40.95 7.237-72.552 9.838l-1.0817-117.88c38.117-16.921 60.911-45.74 53.159-91.146-4.8938-28.666-26.657-46.797-54.524-58.181l-1.1077-121.05c62.018-14.243 104.13-46 93.517-108.09-7.2117-42.342-48.214-63.745-95.191-74.15l-1.1077-121.12 9.04-0.129s265.61-8.989 280.03 178.87c14.397 187.86-139.23 206.04-139.23 206.04"/><path d="m7094.5 17663 5.6144 196.49c21.608 1.338 43.526 1.931 64.954 1.519l1.416 93.928c-38.375-2.292-69.384 0.696-69.384 0.696l2.9874 185.13c23.36 1.443 46.823 1.52 69.178-0.05l1.5713 104c-23.849 1.03-48.755 1.855-73.814 2.524l1.3648 150.36-86.021-2.988-2.1895-145.59c-101.63 1.494-186.8 0.927-186.8 0.927l-4.1723-99.053 70.028-0.928c28.536-0.386 51.278-24.003 50.557-52.54l-9.4264-377.44c-0.6694-26.913-22.072-48.728-48.96-49.913l-46.385-2.061-19.496-114.43 184.17-2.37-2.2927-152.52 91.817-4.43 1.4168 155.77 69.77-0.902 1.6486 110.9c-38.478-0.335-67.556 2.987-67.556 2.987"/><path d="m7158.1 17394 91.791-4.43 1.4681 159.19-90.915 1.159-2.3439-155.92"/><path d="m7259.1 18392-86.047-2.987-2.1635-144.41c31.524-1.34 61.168-3.04 86.82-5.126l1.3908 152.52"/><path d="m7256.6 18122 1.0817 117.88c-25.652 2.086-55.296 3.786-86.82 5.126l-1.5713-104c32.761-2.318 63.125-8.268 87.31-19.008"/><path d="m7165.1 17861c31.653-0.618 62.198-3.528 89.035-9.683l1.1077 121.05c-27.12-11.075-59.983-15.737-88.726-17.437l-1.416-93.928"/><path d="m7162.1 17660-1.6486-110.9 90.915-1.159 1.1077 121.12c-30.134-6.67-62.662-8.833-90.374-9.065"/></g>
		<path d="m67.871 118.69c0.22278 0 0.42818-0.12093 0.5358-0.31591 0.56356-1.0236 2.5726-4.2551 5.1735-6.2121 2.2173-1.6681 4.7343-2.6652 5.8978-3.0412 0.33385-0.10761 0.50803-0.47387 0.38246-0.8008l-0.09027-0.23549c-0.11457-0.29855-0.43973-0.45826-0.74641-0.36626-1.2932 0.38711-4.5265 1.5894-6.6408 3.4706-2.3174 2.061-3.3612 3.1587-5.0605 6.6199-0.19961 0.40619 0.09606 0.88124 0.54853 0.88124" fill="#fcfcd7" stroke-width=".022466"/>
	</g>
	<g id="ethereum">
		<path d="m141.8 163.22c0 8.4981-6.889 15.387-15.387 15.387-8.4981 0-15.388-6.8895-15.388-15.387 0-8.4984 6.8895-15.387 15.388-15.387 8.4984 0 15.387 6.889 15.387 15.387" fill="#dc6b1b" stroke-width=".016981"/>
		<path d="m140.98 162.22c0 8.4981-6.889 15.387-15.387 15.387-8.4981 0-15.388-6.8895-15.388-15.387 0-8.4984 6.8895-15.387 15.388-15.387 8.4984 0 15.387 6.889 15.387 15.387" fill="#f6e052" stroke-width=".016981"/>
		<path d="m139.03 162.32c0 7.3889-5.9898 13.379-13.379 13.379-7.3886 0-13.378-5.9898-13.378-13.379 0-7.3889 5.9898-13.379 13.378-13.379 7.3889 0 13.379 5.9898 13.379 13.379" fill="#f6a612" stroke-width=".016981"/>
		<path d="m113.2 167.25s-1.3308-4.4556 0.53881-9.1816c1.997-5.0477 7.4685-10.328 16.386-8.3471 0 0-7.968-3.4546-14.452 3.6916-5.6426 6.2194-2.4736 13.837-2.4736 13.837" fill="#f68815" stroke-width=".016981"/>
		<g transform="matrix(.016981 0 0 -.016981 3.9792 427.16)" fill="#dc6b1b"><path d="m6823.1 15603 338.5 171.84v440.57z"/><path d="m7161.6 15738v-368.22l-338.5 192.52z"/><path d="m6823.1 15489 338.5-476.73v285.52z"/><path d="m7523.3 15603-338.47 171.84v440.57z"/><path d="m7184.8 15738v-368.22l338.47 192.52z"/><path d="m7523.3 15489-338.47-476.73v285.52z"/></g>
		<g transform="matrix(.016981 0 0 -.016981 3.9792 427.16)" fill="#f8f89d"><path d="m6811.5 15638 338.5 171.81v440.56z"/><path d="m7150 15772v-368.19l-338.5 192.49z"/><path d="m6811.5 15523 338.5-476.73v285.52z"/><path d="m7511.7 15638-338.5 171.81v440.56z"/><path d="m7173.2 15772v-368.19l338.5 192.49z"/><path d="m7511.7 15523-338.5-476.73v285.52z"/></g>
		<path d="m113.14 156.06c0.16838 0 0.32364-0.0914 0.40498-0.2388 0.42596-0.77365 1.9445-3.2162 3.9104-4.6949 1.6759-1.2609 3.5784-2.0148 4.4578-2.2992 0.25234-0.0813 0.38399-0.35773 0.28908-0.60528l-0.0682-0.17755c-0.0866-0.22568-0.33237-0.34638-0.56418-0.27729-0.97747 0.29258-3.4213 1.2014-5.0194 2.6232-1.7516 1.5583-2.5405 2.3875-3.825 5.0036-0.15087 0.30746 0.0726 0.66608 0.41461 0.66608" fill="#fcfcd7" stroke-width=".016981"/>
	</g>
	<g id="wallet">
		<path d="m135.73 212.76c-1.6249-0.166-3.0826 1.0213-3.2486 2.6463-0.1661 1.6258 1.0213 3.0835 2.6462 3.2494 1.6258 0.16613 3.0834-1.0213 3.2495-2.6471 0.16601-1.6249-1.0214-3.0825-2.6473-3.2486" fill="#ececec" stroke-width=".13333"/><path d="m134.7 213.69c-0.50499-0.0516-0.95852 0.31786-1.0101 0.82291-0.0517 0.50586 0.31787 0.95851 0.82286 1.0101 0.50591 0.0517 0.95843-0.31692 1.0101-0.82291 0.0516-0.50492-0.31696-0.95838-0.82287-1.0101" fill="#fff" stroke-width=".13333"/><path d="m137.26 213.29c0.24217 0.48492 0.35565 1.042 0.29658 1.6202-0.1661 1.6258-1.6237 2.8133-3.2495 2.6471-0.57831-0.0591-1.1009-0.28279-1.5269-0.61798 0.43906 0.87824 1.3031 1.5212 2.3498 1.6281 1.6258 0.16613 3.0834-1.0213 3.2495-2.6471 0.10693-1.0466-0.34805-2.0229-1.1194-2.6303" fill="#8b9aa3" stroke-width=".13333"/><path d="m135.04 219.56c-2.1309-0.21759-3.6868-2.1278-3.4692-4.2587 0.21767-2.1308 2.1279-3.6878 4.2587-3.47 0.7341 0.0749 1.4004 0.35146 1.9488 0.76771 0.0129 9e-3 0.0258 0.0192 0.0377 0.0297 1.0208 0.79518 1.6246 2.0819 1.4836 3.4622-0.21768 2.1309-2.1288 3.6868-4.2595 3.4691zm15.088-9.6156c-0.0578-0.0236-0.12-0.0401-0.18507-0.0468l-13.306-1.3593c-3.6512-0.37293-6.925 2.2939-7.2981 5.9452l-0.11928 1.1677c-0.35166 3.4423 1.9998 6.5496 5.3304 7.2056 0.20158 0.0392 0.40676 0.0703 0.61481 0.0915l13.306 1.3593c0.35377 0.0361 0.67095-0.22213 0.70708-0.57598l1.341-13.127c0.0295-0.28866-0.13705-0.55292-0.39092-0.66025" fill="#b05f28" stroke-width=".13333"/><path d="m138.97 198.63c-0.25294-0.0259-0.43727-0.25213-0.41143-0.50505l0.71157-6.9653c0.0258-0.25292 0.25211-0.43732 0.50505-0.41145 0.25296 0.0259 0.43727 0.25212 0.41143 0.50505l-0.71155 6.9653c-0.0259 0.25293-0.25212 0.43719-0.50507 0.41146zm-3.3476-10.044-6.9653-0.71158c-0.25294-0.0259-0.43727-0.252-0.41143-0.50506 0.0258-0.25293 0.25211-0.43719 0.50505-0.41132l6.9653 0.71145c0.25296 0.0259 0.43729 0.25212 0.41143 0.50505-0.0258 0.25306-0.2521 0.43732-0.50505 0.41146zm7e-3 37.842c0.028-0.27399 0.27336-0.47306 0.54647-0.44506 0.27403 0.0279 0.47408 0.27253 0.44608 0.54652l-0.80061 7.8369c-0.028 0.274-0.27344 0.47399-0.54748 0.44599-0.15854-0.0163-0.29292-0.10586-0.37167-0.23239-0.0565-0.0911-0.0851-0.20053-0.0734-0.31493zm-0.7137 16.804c-0.0135 0.13199-0.0786 0.25226-0.1825 0.33612-0.10212 0.084-0.23301 0.12333-0.36499 0.10987l-3.8327-0.39159c-0.27127-0.0276-0.46768-0.26253-0.44639-0.53452l1e-3 -0.0133c0.0279-0.27306 0.27244-0.47318 0.54646-0.44518l3.337 0.34092 0.35839-3.5083c0.0279-0.27306 0.27336-0.47306 0.54648-0.44519 0.27403 0.028 0.47399 0.27346 0.44608 0.54665zm-12.218-0.74625-7.8369-0.80051c-0.27404-0.028-0.47307-0.27333-0.44507-0.54746 0.0279-0.27306 0.27243-0.47318 0.54646-0.44518l7.8369 0.80064c0.27404 0.028 0.47399 0.27346 0.44609 0.54652-0.028 0.27413-0.27345 0.47399-0.54748 0.44599zm-15.674-1.6013-7.8369-0.80065c-0.27403-0.0279-0.47307-0.27333-0.44508-0.54732 0.02791-0.27306 0.27245-0.47319 0.54648-0.44519l7.8369 0.80065c0.25662 0.0263 0.44828 0.24399 0.44848 0.49585 0 0.0167 0 0.0333-2e-3 0.0507-0.028 0.27399-0.27345 0.47399-0.54748 0.44599zm-53.592-5.4748c-0.27403-0.028-0.47307-0.27333-0.44508-0.54745 0.02791-0.27306 0.27245-0.47319 0.54648-0.44506l6.5685 0.67092c0.27403 0.028 0.47307 0.27346 0.44518 0.54652-0.028 0.27399-0.27254 0.47412-0.54657 0.44612zm5.6664-55.565 6.9653 0.71159c0.25295 0.0257 0.43728 0.25199 0.41144 0.50505-0.02584 0.25293-0.25211 0.43719-0.50507 0.41146l-6.9653-0.71172c-0.25294-0.0257-0.43727-0.25199-0.41143-0.50505 0.02584-0.25293 0.2521-0.43719 0.50505-0.41133zm13.93 1.423 6.9653 0.71159c0.25295 0.0259 0.43728 0.25212 0.41143 0.50505-0.02584 0.25306-0.2521 0.43732-0.50505 0.41146l-6.9653-0.71159c-0.25294-0.0259-0.43727-0.25212-0.41143-0.50505s0.2521-0.43719 0.50505-0.41146zm3.1927 55.969c-0.02799 0.27399-0.27345 0.47399-0.54656 0.44612l-7.8378-0.80078c-0.27403-0.028-0.47307-0.27332-0.44507-0.54732 0.02789-0.27306 0.27243-0.47318 0.54647-0.44518l7.8378 0.80064c0.27311 0.028 0.47307 0.27346 0.44516 0.54652zm10.738-54.545 6.9653 0.71158c0.25295 0.0259 0.43727 0.25213 0.41143 0.50505-0.02584 0.25293-0.2521 0.43733-0.50505 0.41146l-6.9653-0.71158c-0.25295-0.0259-0.43727-0.25213-0.41143-0.50506 0.02584-0.25292 0.2521-0.43732 0.50505-0.41145zm4.9368 56.147c-0.02799 0.27413-0.27345 0.47399-0.54647 0.44613l-7.8379-0.80065c-0.27403-0.0281-0.47307-0.27346-0.44507-0.54745 0.02789-0.27306 0.27243-0.47319 0.54647-0.44519l7.8379 0.80065c0.27302 0.0279 0.47298 0.27345 0.44507 0.54651zm8.9938-54.724 6.9653 0.71158c0.25295 0.0259 0.43727 0.25213 0.41143 0.50506-0.0258 0.25292-0.2521 0.43718-0.50505 0.41145l-6.9653-0.71158c-0.25295-0.0259-0.43727-0.25213-0.41143-0.50505 0.0258-0.25306 0.25212-0.43733 0.50506-0.41146zm13.93 1.4232 6.9653 0.71159c0.25295 0.0257 0.43728 0.25199 0.41144 0.50505-0.0258 0.25293-0.25211 0.43719-0.50507 0.41146l-6.9653-0.71172c-0.25295-0.0257-0.43727-0.25199-0.41143-0.50505 0.0258-0.25293 0.2521-0.43719 0.50506-0.41133zm28.561 22.727 1.8762-18.366c0.30963-3.0309-1.9048-5.7491-4.9355-6.0586l-66.668-6.8108h-0.0037l-8.6956-0.88838h-0.0037l-2.623-0.26799c-3.0299-0.30946-5.7481 1.9049-6.0577 4.9356l-5.4119 52.976c-0.30971 3.0318 1.9048 5.7491 4.9345 6.0586l77.994 7.9677c3.0309 0.30973 5.7489-1.9037 6.0586-4.9355l1.8762-18.366-6.6482-0.67919c-4.1563-0.42465-7.1928-4.1511-6.7681-8.3073l0.11927-1.1677c0.42461-4.1562 4.1519-7.1926 8.3082-6.768l0.85141 0.0869 0.26347-2.5789c0.0258-0.25306 0.2521-0.43746 0.50506-0.41146 0.25295 0.0257 0.43727 0.25213 0.41143 0.50506l-0.26346 2.579 4.8803 0.49852" fill="#b05f28" stroke-width=".13333"/>
		<g transform="matrix(.13333 0 0 -.13333 0 2666.7)" fill="#7e391a"><path d="m1058 18269-9.1478-89.545c-2.323-22.738-22.709-39.339-45.441-37.017l-584.97 59.76s187.69-18.473 365.41-5.909c7.6747 0.543 15.334 1.142 22.952 1.802 77.457 6.735 151.35 19.856 204.98 43.556 2.3928 1.055 4.7464 2.134 7.061 3.238 14.901 7.097 28.066 15.08 39.089 24.06l0.068 0.06"/><path d="m1096.3 18576-14.072-137.75 30.334-3.099 14.074 137.76c2.3222 22.731-14.286 43.119-37.024 45.442l-12.462 1.273c13.127-9.857 20.937-26.143 19.151-43.63"/><path d="m1055.7 18178c-1.7858-17.48-12.72-31.845-27.562-38.844l12.448-1.272c22.739-2.322 43.126 14.285 45.448 37.017l14.072 137.75-30.334 3.098-14.072-137.75"/><path d="m1128.9 18421-10.058-98.454c-0.271-2.654-2.6499-4.591-5.3032-4.32l-98.138 10.025c25.187 0.837 101.65 10.501 110.44 96.506 0.042 0.406 0.082 0.805 0.1291 1.195 1.9041-0.805 3.1532-2.787 2.932-4.952"/><path d="m1016.5 18350c15.982-1.632 30.315 10.038 31.948 26.019 0.9256 9.06-2.4265 17.584-8.407 23.564 3.5932-5.416 5.4154-12.055 4.704-19.018-1.6326-15.982-15.966-27.652-31.947-26.019-6.9426 0.709-13.07 3.821-17.65 8.415 4.6561-7.046 12.314-12.037 21.353-12.961"/></g><path d="m129.71 216.23 0.11928-1.1676c0.37301-3.6514 3.6468-6.3182 7.2981-5.9452l13.306 1.3593c0.0284 3e-3 0.0565 8e-3 0.0837 0.0151-7e-3 -0.25453-0.16417-0.47799-0.39231-0.57439-0.0578-0.0236-0.12-0.0401-0.18506-0.0468l-13.306-1.3593c-3.6512-0.37293-6.925 2.2939-7.2981 5.9452l-0.11928 1.1677c-0.20074 1.9649 0.48024 3.8199 1.7209 5.1728-0.92165-1.2758-1.3994-2.8814-1.2272-4.5668" fill="#d3a98b" stroke-width=".13333"/><path d="m132.69 223.16c1.1259 0.95318 2.5398 1.5893 4.1154 1.7504l4.8152 0.49185 0.0936-0.91651-6.6482-0.67918c-0.84593-0.0864-1.6434-0.31133-2.3759-0.64652" fill="#7e391a" stroke-width=".13333"/><path d="m52.592 234.89 5.4119-52.976c0.30973-3.0318 3.027-5.2453 6.0577-4.9356l2.6231 0.26786h0.0031l8.6964 0.88851h0.0029l66.669 6.8106c0.51782 0.0529 1.0107 0.17746 1.4718 0.35973-0.85183-0.79918-1.962-1.3357-3.2111-1.4634l-66.668-6.8108h-0.0029l-8.6964-0.88837h-0.0029l-2.6231-0.268c-3.0306-0.30959-5.748 1.904-6.0577 4.9356l-5.4119 52.976c-0.25682 2.5139 1.2226 4.8107 3.4635 5.6981-1.2156-1.1392-1.9062-2.8127-1.7242-4.5944" fill="#d3a98b" stroke-width=".13333"/><path d="m59.897 207.83-0.76197-0.0779c-0.43496-0.0444-0.7515-0.43319-0.70702-0.86865l2.2131-21.663c0.04448-0.43545 0.4331-0.75225 0.86806-0.70771l0.76197 0.0777c0.43487 0.0445 0.75139 0.43332 0.70693 0.86864l-2.2131 21.663c-0.04448 0.43532-0.4331 0.75212-0.86796 0.70772" fill="#d3a98b" stroke-width=".13333"/>
		<g transform="matrix(.13333 0 0 -.13333 0 2666.7)"><path d="m1118.8 18323c-0.271-2.654-2.6499-4.591-5.3032-4.32l-99.794 10.195c-27.385 2.797-47.388 27.351-44.59 54.736l0.8946 8.758c2.797 27.378 27.351 47.38 54.736 44.583l99.794-10.195c2.6532-0.271 4.5911-2.65 4.32-5.303l-10.058-98.454m-32.801-147.65c-2.3223-22.732-22.709-39.339-45.448-37.017l-12.448 1.272c14.842 6.999 25.776 21.364 27.562 38.844l14.072 137.75 30.334-3.098-14.072-137.75m-630.41 22.743-37.203 3.801c-22.73 2.322-39.332 22.708-37.01 45.44l40.591 397.33c2.3229 22.738 22.703 39.34 45.434 37.018l19.674-2.01h0.022l65.225-6.663h0.022l500.03-51.082c22.732-2.323 39.34-22.703 37.017-45.441l-14.072-137.75-36.603 3.739 1.9761 19.343c0.1938 1.898-1.1887 3.594-3.0858 3.788-1.8972 0.194-3.5942-1.188-3.7881-3.085l-1.976-19.343-6.3858 0.652c-31.173 3.185-59.128-19.582-62.312-50.754l-0.8947-8.758c-3.1845-31.173 19.589-59.128 50.762-62.313l49.863-5.094-14.072-137.75c-2.3223-22.732-22.71-39.34-45.441-37.018l-547.76 55.959m633.98 420.04c22.739-2.323 39.346-22.71 37.024-45.442l-14.074-137.76-30.334 3.099 14.073 137.75c1.7864 17.487-6.0236 33.774-19.151 43.63l12.462-1.273m35.674-184.51-5.8496 0.598 14.074 137.76c2.7091 26.519-16.67 50.308-43.196 53.018l-39.25 4.01c-194.19 19.415-402.95 41.158-564.05 57.608l-18.873 1.929c-26.52 2.709-50.3-16.664-53.01-43.19l-40.59-397.33c-2.7099-26.526 16.661-50.307 43.181-53.017l622.17-63.56c26.526-2.709 50.314 16.663 53.024 43.189l14.072 137.75 5.8497-0.597c6.4408-0.658 12.221 4.05 12.879 10.491l10.058 98.454c0.6587 6.448-4.0509 12.222-10.492 12.88"/><path d="m1013.5 18361c-12.187 1.244-21.093 12.177-19.847 24.371 1.245 12.188 12.177 21.093 24.365 19.848 12.194-1.246 21.1-12.178 19.855-24.365-1.2457-12.194-12.178-21.1-24.372-19.854zm20.118 45.112c-0.088 0.08-0.1852 0.158-0.2827 0.223-4.1117 3.129-9.1098 5.196-14.616 5.758-15.982 1.633-30.308-10.038-31.941-26.02-1.6327-15.981 10.037-30.315 26.019-31.947 15.982-1.633 30.316 10.044 31.948 26.026 1.0568 10.345-3.472 19.996-11.128 25.96"/><path d="m964.91 18592 52.241-5.337c1.8972-0.194 3.5942 1.188 3.788 3.086 0.1939 1.897-1.1886 3.594-3.0858 3.788l-52.241 5.336c-1.8971 0.194-3.5942-1.188-3.788-3.085-0.1938-1.898 1.1887-3.594 3.0858-3.788"/><path d="m811.98 18611c0.1938 1.897-1.1886 3.594-3.0858 3.788l-52.241 5.337c-1.8971 0.194-3.5942-1.188-3.788-3.086-0.1938-1.897 1.1886-3.594 3.0858-3.788l52.241-5.337c1.8972-0.193 3.5942 1.189 3.788 3.086"/><path d="m707.49 18621c0.1938 1.897-1.1886 3.594-3.0858 3.788l-52.241 5.337c-1.8972 0.194-3.5942-1.189-3.788-3.086s1.1886-3.594 3.0858-3.788l52.241-5.337c1.8972-0.194 3.5942 1.189 3.788 3.086"/><path d="m916.46 18600c0.1938 1.898-1.1887 3.595-3.0859 3.788l-52.241 5.337c-1.8972 0.194-3.5942-1.188-3.788-3.085-0.1938-1.898 1.1886-3.595 3.0858-3.788l52.241-5.338c1.8972-0.193 3.5943 1.189 3.7881 3.086"/><path d="m1042.3 18511c1.8972-0.193 3.5942 1.189 3.7881 3.086l5.3368 52.241c0.1938 1.897-1.1886 3.594-3.0858 3.788-1.8971 0.194-3.5942-1.189-3.788-3.086l-5.3369-52.241c-0.1938-1.897 1.1887-3.594 3.0858-3.788"/><path d="m599.22 18629c1.8972-0.194 3.5942 1.188 3.788 3.086 0.1939 1.897-1.1886 3.594-3.0858 3.788l-52.241 5.337c-1.8972 0.193-3.5942-1.189-3.788-3.086s1.1887-3.594 3.0858-3.788l52.241-5.337"/><path d="m495.44 18647-52.241 5.337c-1.8972 0.194-3.5942-1.188-3.788-3.085-0.1938-1.898 1.1887-3.595 3.0858-3.788l52.241-5.338c1.8972-0.193 3.5943 1.189 3.7881 3.086 0.1938 1.898-1.1887 3.595-3.0859 3.788"/><path d="m920.97 18190-58.778 6.005c-2.0553 0.21-3.8887-1.284-4.0986-3.339-0.21-2.056 1.2836-3.889 3.3388-4.099l58.778-6.004c2.0553-0.21 3.8956 1.282 4.1055 3.338 0.21 2.055-1.2904 3.889-3.3457 4.099"/><path d="m803.41 18202-58.778 6.005c-2.0553 0.21-3.8901-1.284-4.1-3.339-0.21-2.055 1.2849-3.889 3.3402-4.099l58.778-6.004c2.0553-0.21 3.8955 1.283 4.1055 3.338s-1.2904 3.889-3.3457 4.099"/><path d="m568.29 18226-58.781 6.005c-2.0539 0.21-3.8907-1.284-4.1007-3.339s1.287-3.889 3.3409-4.099l58.781-6.005c2.0539-0.209 3.8901 1.284 4.1 3.339 0.21 2.055-1.2863 3.889-3.3402 4.099"/><path d="m450.73 18238-49.264 5.032c-2.0539 0.21-3.8908-1.283-4.1007-3.338-0.21-2.055 1.287-3.889 3.3409-4.099l49.264-5.033c2.0539-0.21 3.8908 1.283 4.1007 3.339 0.21 2.055-1.287 3.889-3.3409 4.099"/><path d="m685.85 18214-58.782 6.005c-2.0532 0.21-3.89-1.284-4.1-3.339s1.287-3.889 3.3402-4.099l58.782-6.005c2.0531-0.21 3.89 1.284 4.1 3.339 0.2099 2.055-1.287 3.889-3.3403 4.099"/><path d="m1011.6 18211c-2.0485 0.209-3.8887-1.284-4.0987-3.339l-2.6881-26.313-25.028 2.557c-2.0553 0.21-3.8887-1.284-4.0986-3.339l-0.01-0.1c-0.1597-2.04 1.314-3.795 3.3487-4.003l28.746-2.936c0.9899-0.102 1.9709 0.187 2.7437 0.817 0.7734 0.636 1.2607 1.531 1.3619 2.521l3.0679 30.031c0.21 2.056-1.2904 3.89-3.3456 4.1"/><path d="m1021.3 18306c-2.0484 0.21-3.8893-1.29-4.0993-3.345l-6.0047-58.779c-0.21-2.055 1.2904-3.889 3.3388-4.098 2.0553-0.21 3.8956 1.283 4.1055 3.338l6.0047 58.778c0.21 2.055-1.2897 3.896-3.345 4.106"/></g>
	</g>
	<style>
		@keyframes fall {
			0% { transform: translate(0,0); opacity: 0 }
			20%, 80% { opacity: 1 }
			100% { transform: translate(0,80px); opacity: 0 }
		}
		#bitcoin {
			animation: fall 2s linear infinite;
			animation-delay: -0.8s;
		}
		#ripple {
			animation: fall 2s linear infinite;
		}
		#litecoin {
			animation: fall 2s linear infinite;
			animation-delay: -1.6s;
		}
		#ethereum {
			animation: fall 2s linear infinite;
			animation-delay: -1s;
		}
	</style>
</svg>
