<?xml version="1.0" encoding="UTF-8"?>
<svg width="256" height="256" version="1.1" viewBox="0 0 256 256" xml:space="preserve" xmlns="http://www.w3.org/2000/svg">
<desc>Created with Fabric.js 1.7.22</desc>

<g transform="translate(128 128) scale(.72)" style="">
	<g transform="translate(-175.05 -175.05) scale(3.89)">
	
	<path transform="matrix(.35704 0 0 .35704 -.70123 -.70123)" d="m128 1.9648c-9.2342 0-16.719 7.4826-16.719 16.717 0 7.7806 5.3223 14.298 12.518 16.166v15.504c-14.751 1.6015-30.662 7.7269-41.328 15.408l12.625 12.625c9.6949-6.452 21.073-9.918 32.982-9.918 11.892 0 23.25 3.4569 32.934 9.8887l12.629-12.627c-14.37-9.5628-26.687-13.71-41.439-15.377v-15.504c7.1981-1.8653 12.52-8.3854 12.52-16.166-0.0028-9.2314-7.4865-16.717-16.721-16.717zm0 8.4023c2.221 0 4.3096 0.8643 5.8809 2.4355 1.5712 1.5712 2.4375 3.6579 2.4375 5.8789 0 4.5849-3.7315 8.3164-8.3164 8.3164-4.5877 0-8.3184-3.7315-8.3184-8.3164 0-4.5849 3.7315-8.3145 8.3164-8.3145zm62.688 72.484c-4.431 4.0612-8.2651 8.2651-12.637 12.637 6.3241 9.6284 9.7266 20.89 9.7266 32.678 0 11.911-3.4679 23.286-9.9199 32.98l12.625 12.625c8.8696-11.651 14.367-28.989 15.17-41.57h15.502c1.8653 7.1953 8.3862 12.518 16.164 12.518 9.2342 0 16.717-7.4845 16.717-16.719s-7.4826-16.719-16.717-16.719c-7.7806 0-14.298 5.3223-16.166 12.518h-15.504c-2.1981-17.451-6.1718-28.755-14.961-40.947zm-125.25 0.044922c-9.024 11.048-14.301 28.61-15.086 40.904h-15.504c-1.8653-7.1952-8.3843-12.516-16.162-12.516-9.237-0.0028-16.721 7.4806-16.721 16.715s7.4826 16.719 16.717 16.719c7.7806 0 14.299-5.3223 16.164-12.518h15.502c2.237 17.667 6.2867 29.14 15.295 41.525 4.8026 6.1347 11.697 12.559 17.121 17.049 11.437 8.7268 28.69 14.085 41.035 14.873v15.504c-7.1953 1.8653-12.518 8.3843-12.518 16.162 0 9.237 7.4845 16.721 16.719 16.721s16.719-7.4826 16.719-16.717c0-7.7806-5.3215-14.301-12.52-16.166v-15.504c17.066-2.2816 29.028-6.1131 41.148-14.842-4.1232-4.3873-8.2911-8.2891-12.641-12.639-9.6179 6.304-20.861 9.6973-32.629 9.6973-11.257 0-22.034-3.1033-31.367-8.8906-6.0129-3.3997-13.731-10.945-19.535-19.584-5.7305-9.3004-8.7969-20.024-8.7969-31.225 0-11.769 3.3923-23.012 9.6973-32.631-4.1941-4.4917-8.459-8.459-12.639-12.639zm-46.756 36.787c4.5849 0 8.3164 3.7315 8.3164 8.3164s-3.7315 8.3164-8.3164 8.3164c-4.5849 0-8.3145-3.7315-8.3145-8.3164 0-4.5849 3.7295-8.3164 8.3145-8.3164zm218.64 0c4.5849 0 8.3144 3.7315 8.3144 8.3164s-3.7295 8.3164-8.3144 8.3164-8.3164-3.7315-8.3164-8.3164 3.7315-8.3164 8.3164-8.3164zm-109.32 109.32c4.5849 0 8.3164 3.7315 8.3164 8.3164 0 2.221-0.86625 4.3105-2.4375 5.8789-1.5684 1.5712-3.6579 2.4355-5.8789 2.4355-4.5849 0-8.3164-3.7295-8.3164-8.3144s3.7315-8.3164 8.3164-8.3164z"/><g stroke-linecap="round">
	
	
	
	
	<path d="m69.391 14.996c-3.297 0-5.969 2.672-5.969 5.969 0 1.104 0.305 2.134 0.827 3.021l-5.727 5.728c-0.586 0.585-0.586 1.536 0 2.121 0.293 0.293 0.677 0.439 1.061 0.439s0.768-0.146 1.061-0.439l5.727-5.727c0.887 0.522 1.917 0.827 3.021 0.827 3.297 0 5.969-2.672 5.969-5.969s-2.673-5.97-5.97-5.97zm0 8.939c-1.637 0-2.969-1.332-2.969-2.969s1.332-2.969 2.969-2.969 2.969 1.332 2.969 2.969c1e-3 1.637-1.331 2.969-2.969 2.969z"/>
	<path d="m69.391 63.604c-1.104 0-2.134 0.305-3.021 0.827l-4.9101-4.9101c-0.586-0.586-1.535-0.586-2.121 0s-0.586 1.535 0 2.121l4.9101 4.9101c-0.522 0.887-0.827 1.917-0.827 3.021 0 3.297 2.672 5.969 5.969 5.969s5.969-2.672 5.969-5.969c1e-3 -3.297-2.672-5.969-5.969-5.969zm0 8.938c-1.637 0-2.969-1.332-2.969-2.969s1.332-2.969 2.969-2.969 2.969 1.332 2.969 2.969c1e-3 1.637-1.331 2.969-2.969 2.969z"/>
	<path d="m32.01 29.357-5.727-5.728c0.522-0.887 0.827-1.917 0.827-3.021 0-3.297-2.672-5.969-5.969-5.969-3.297 0-5.969 2.672-5.969 5.969 0 3.297 2.672 5.969 5.969 5.969 1.104 0 2.134-0.305 3.021-0.827l5.728 5.728c0.293 0.293 0.677 0.439 1.061 0.439s0.768-0.146 1.061-0.439c0.584-0.585 0.584-1.536-2e-3 -2.121zm-13.838-8.748c0-1.637 1.332-2.969 2.969-2.969s2.969 1.332 2.969 2.969-1.332 2.969-2.969 2.969-2.969-1.332-2.969-2.969z"/>
</g></g>
</g>
<g transform="matrix(.56513 0 0 .56513 106.28 149.65)">
	<g transform="matrix(3.89,0,0,3.89,-175.05,-175.05)" stroke-linecap="round">
	
	<path d="m4 90c-1.024 0-2.047-0.391-2.829-1.172-1.562-1.562-1.562-4.095 0-5.656l28.689-28.69c1.563-1.563 4.095-1.563 5.657 0 1.562 1.562 1.562 4.095 0 5.656l-28.688 28.69c-0.782 0.781-1.805 1.172-2.829 1.172z"/>
	<path d="m47.793 44.194c0-0.977-0.792-1.769-1.769-1.769h-5.648c-0.977 0-1.769 0.792-1.769 1.769v7.554c2.699 2.34 5.82 4.047 9.186 5.04z"/>
	<path d="m59.7 57.339v-20.472c0-0.977-0.792-1.769-1.769-1.769h-5.648c-0.977 0-1.769 0.792-1.769 1.769v20.555c1.423 0.25 2.877 0.385 4.352 0.385 1.642-1e-3 3.259-0.16 4.834-0.468z"/>
	<path d="m69.838 25.023h-5.648c-0.977 0-1.769 0.792-1.769 1.769v29.846c3.381-1.073 6.508-2.867 9.186-5.31v-24.536c0-0.977-0.792-1.769-1.769-1.769z"/>
</g>
</g></svg>
